# xmcd
#
# Track frame offsets: 
#        150
#        8003
#        25422
#        37023
#        62329
#        86890
#        105507
#        135611
#
# Disc length: 2040 seconds
#
# Revision: 0
# Processed by: cddbd v1.5.2PL0 Copyright (c) Steve Scherf et al.
# Submitted via: ExactAudioCopy v0.95b4
#
DISCID=5e07f608
DTITLE=Eric Johnson - 1980 - Whiskey River - San Antonio TX - Disc 1
DYEAR=1980
DGENRE=Rock
TTITLE0=Untitled Intro Jam
TTITLE1=Your Friend That's New
TTITLE2=Chicken Pickin'
TTITLE3=Bold As Love
TTITLE4=Winter Came
TTITLE5=Emerald Eyes
TTITLE6=I Don't Mind, I Got Time
TTITLE7=Untitled Country Tune
EXTD=
EXTT0=
EXTT1=
EXTT2=
EXTT3=
EXTT4=
EXTT5=
EXTT6=
EXTT7=
PLAYORDER=
